<svg xmlns="http://www.w3.org/2000/svg" id="Layer_1" data-name="Layer 1" width="512" height="512"><defs id="defs4"><style id="style2">.cls-2{fill:#009639}</style></defs><path d="M256.049 497.73a16.837 16.837 0 0 1-8.665-2.364L53.114 383.314a18.117 18.117 0 0 1-6.4-6.4 17.822 17.822 0 0 1-2.264-8.665V144.047a18.117 18.117 0 0 1 2.265-8.764 17.133 17.133 0 0 1 6.4-6.301l194.17-112.348a17.231 17.231 0 0 1 8.764-2.363 16.247 16.247 0 0 1 8.566 2.363l194.171 112.25a17.133 17.133 0 0 1 8.764 15.064v224.203a18.117 18.117 0 0 1-2.265 8.763 17.133 17.133 0 0 1-6.4 6.302l-194.171 112.15a16.837 16.837 0 0 1-8.665 2.363z" id="path8" fill="none" stroke-width="9.846"/><path class="cls-2" d="M256.048 22.739a7.779 7.779 0 0 1 4.431 1.28l194.27 112.15a9.059 9.059 0 0 1 3.249 3.151 8.763 8.763 0 0 1 1.182 4.431V368.249a8.468 8.468 0 0 1-1.182 4.332 9.059 9.059 0 0 1-3.348 3.348l-194.27 112.15a8.763 8.763 0 0 1-8.96 0L57.25 375.831a8.468 8.468 0 0 1-4.431-7.78V143.752a8.763 8.763 0 0 1 1.182-4.43 9.846 9.846 0 0 1 3.347-3.25l194.27-112.15a8.763 8.763 0 0 1 4.43-1.182m0-16.739a25.798 25.798 0 0 0-12.898 3.446L48.979 121.596a25.7 25.7 0 0 0-9.847 9.355 26.191 26.191 0 0 0-3.446 12.997v224.104a25.6 25.6 0 0 0 3.84 12.8 25.01 25.01 0 0 0 9.847 9.847l194.17 111.756a24.911 24.911 0 0 0 12.9 3.545 25.896 25.896 0 0 0 12.898-3.545L463.02 390.7a25.01 25.01 0 0 0 9.846-9.847 25.207 25.207 0 0 0 3.446-12.997V143.948a26.191 26.191 0 0 0-3.446-12.997 25.7 25.7 0 0 0-9.846-9.354L268.849 9.447A25.502 25.502 0 0 0 256.049 6z" id="path10" fill="#009639" stroke-width="9.846"/><path class="cls-2" d="M193.82 341.467a25.01 25.01 0 0 1-49.921 0V169.943a25.994 25.994 0 0 1 27.57-24.321h.787a44.309 44.309 0 0 1 34.069 15.163l7.483 9.06L318.18 294.695V170.632a25.01 25.01 0 0 1 49.921 0v171.425a25.994 25.994 0 0 1-27.57 24.321h-.689a44.309 44.309 0 0 1-34.66-15.065L193.82 217.205z" id="path12" fill="#009639" stroke-width="9.846"/></svg>